<?xml version="1.0" standalone="no"?>
<!DOCTYPE svg PUBLIC "-//W3C//DTD SVG 20010904//EN"
 "http://www.w3.org/TR/2001/REC-SVG-20010904/DTD/svg10.dtd">
<svg version="1.0" xmlns="http://www.w3.org/2000/svg"
 width="512.000000pt" height="512.000000pt" viewBox="0 0 512.000000 512.000000"
 preserveAspectRatio="xMidYMid meet">
<metadata>
Created by potrace 1.14, written by Peter Selinger 2001-2017
</metadata>
<g transform="translate(0.000000,512.000000) scale(0.100000,-0.100000)"
fill="#000000" stroke="none">
<path d="M1276 4612 c-28 -48 -71 -123 -97 -167 -46 -79 -463 -797 -501 -865
-76 -132 -509 -880 -528 -910 -6 -8 -21 -36 -34 -61 l-25 -46 26 -44 c14 -24
35 -62 48 -84 12 -22 127 -220 255 -440 261 -450 264 -455 295 -510 13 -22 57
-98 99 -169 42 -70 76 -130 76 -132 0 -2 13 -25 29 -51 16 -27 40 -67 53 -90
12 -22 97 -170 188 -327 l165 -285 1240 -1 1240 0 145 251 c80 138 156 270
169 293 13 22 66 115 119 206 52 91 149 257 214 370 65 113 122 212 127 220
22 36 381 657 433 747 l29 52 -26 41 c-14 23 -35 58 -47 78 -25 45 -353 612
-660 1140 -125 216 -237 409 -248 430 -11 20 -33 58 -48 83 -15 25 -67 116
-117 202 l-90 157 -1240 0 -1240 -1 -49 -87z m2050 -721 c8 -1 89 -134 214
-352 8 -14 53 -92 100 -172 47 -81 92 -159 100 -174 9 -15 34 -59 57 -98 22
-38 50 -86 61 -105 10 -19 65 -114 122 -210 56 -96 107 -185 113 -197 8 -19
-7 -51 -108 -225 -65 -112 -127 -219 -137 -238 -11 -19 -32 -55 -47 -80 -16
-25 -65 -110 -111 -190 -84 -147 -188 -327 -251 -433 -19 -33 -48 -83 -64
-112 -17 -29 -33 -57 -37 -61 -12 -12 -1529 -11 -1543 1 -9 8 -224 376 -413
705 -11 19 -95 165 -187 324 l-168 288 17 32 c20 38 28 53 190 331 71 121 140
240 155 265 41 71 224 388 245 423 10 18 45 79 78 136 81 141 80 140 97 143
12 2 1477 1 1517 -1z"/>
</g>
</svg>
